<?xml version="1.0" encoding="UTF-8" standalone="no"?>
<!DOCTYPE svg PUBLIC "-//W3C//DTD SVG 1.1//EN" "http://www.w3.org/Graphics/SVG/1.1/DTD/svg11.dtd">
<svg width="100%" height="100%" viewBox="0 0 879 482" version="1.1" xmlns="http://www.w3.org/2000/svg" xmlns:xlink="http://www.w3.org/1999/xlink" xml:space="preserve" xmlns:serif="http://www.serif.com/" style="fill-rule:evenodd;clip-rule:evenodd;stroke-linejoin:round;stroke-miterlimit:2;">
    <g transform="matrix(0.885477,0,0,0.885477,0.962334,-181.058)">
        <path d="M627.048,328.536C637.036,320.89 656.064,306.598 671.704,296.451C682.75,289.286 692.558,284.353 697.394,283.622C708.133,281.998 728.011,276.457 745.945,278.356C762.94,280.161 777.904,289.124 791.96,298.117C826.211,320.038 846.308,359.841 849.845,367.27L873.916,397.975L936.78,459.554L790.01,442.912L752.566,477.47L752.551,477.457L565.396,650.226L116.112,724.764L308.097,621.027L403.197,555.055L468.537,486.928L40.634,474.243L530.589,235.445L627.048,328.536Z" style="fill:white;"/>
    </g>
</svg>
